# xmcd
#
# Track frame offsets: 
#        150
#        8997
#        14731
#        23566
#        32315
#        45854
#        59363
#        72851
#        86175
#        98823
#        112902
#        126852
#        140539
#        155855
#        169760
#        183471
#        197260
#        205747
#        214228
#        222697
#        230946
#        239172
#        254579
#        265706
#        276822
#        287758
#        313241
#
# Disc length: 4534 seconds
#
# Revision: 0
# Processed by: cddbd v1.5.2PL0 Copyright (c) Steve Scherf et al.
# Submitted via: ExactAudioCopy v0.95b3
#
DISCID=9911b41b
DTITLE=Jimi Hendrix  - Axis - Bold As Love - The Sessions (ATM 158) - 
DTITLE=Disc 1
DYEAR=1900
DGENRE=
TTITLE0=Exp
TTITLE1=Exp
TTITLE2=Exp
TTITLE3=Exp
TTITLE4=Up from the Skies
TTITLE5=Up from the Skies
TTITLE6=Up from the Skies
TTITLE7=Up from the Skies
TTITLE8=Spanish Castle Magic
TTITLE9=Spanish Castle Magic
TTITLE10=Spanish Castle Magic
TTITLE11=Spanish Castle Magic
TTITLE12=Wait until Tomorrow
TTITLE13=Wait until Tomorrow
TTITLE14=Wait until Tomorrow
TTITLE15=Wait until Tomorrow
TTITLE16=Ain't No Telling
TTITLE17=Ain't No Telling
TTITLE18=Ain't No Telling
TTITLE19=Ain't No Telling
TTITLE20=Ain't No Telling
TTITLE21=Little Wing
TTITLE22=Little Wing
TTITLE23=Little Wing
TTITLE24=Little Wing
TTITLE25=If 6 Was 9
TTITLE26=If 6 Was 9
EXTD=
EXTT0=
EXTT1=
EXTT2=
EXTT3=
EXTT4=
EXTT5=
EXTT6=
EXTT7=
EXTT8=
EXTT9=
EXTT10=
EXTT11=
EXTT12=
EXTT13=
EXTT14=
EXTT15=
EXTT16=
EXTT17=
EXTT18=
EXTT19=
EXTT20=
EXTT21=
EXTT22=
EXTT23=
EXTT24=
EXTT25=
EXTT26=
PLAYORDER=
